<?xml version="1.0" standalone="no"?>
<!DOCTYPE svg PUBLIC "-//W3C//DTD SVG 20010904//EN"
 "http://www.w3.org/TR/2001/REC-SVG-20010904/DTD/svg10.dtd">
<svg version="1.0" xmlns="http://www.w3.org/2000/svg"
 width="733.000000pt" height="733.000000pt" viewBox="0 0 733.000000 733.000000"
 preserveAspectRatio="xMidYMid meet">
<metadata>
Created by potrace 1.14, written by Peter Selinger 2001-2017
</metadata>
<g transform="translate(0.000000,733.000000) scale(0.100000,-0.100000)"
fill="#000000" stroke="none">
<path d="M3759 7236 c12 -14 12 -19 1 -29 -10 -9 -11 -9 -6 1 8 13 -6 17 -18
5 -11 -12 -37 -12 -29 0 4 6 0 8 -10 4 -9 -3 -19 -1 -23 5 -4 7 -3 8 4 4 7 -4
12 -3 12 2 0 6 -11 9 -24 8 -18 -1 -22 -4 -14 -14 6 -7 8 -15 4 -19 -3 -3 -6
-2 -6 4 0 9 -12 14 -78 28 -6 2 -19 -6 -28 -18 l-16 -22 7 22 c5 18 3 22 -9
17 -9 -3 -13 -11 -9 -18 4 -6 -1 -5 -10 3 -11 9 -17 10 -18 2 -3 -26 -4 -30
-12 -38 -5 -4 -7 -1 -5 7 2 8 -3 14 -10 12 -8 -1 -11 2 -6 9 5 9 2 10 -10 6
-10 -4 -20 -7 -22 -7 -3 0 -3 -4 1 -9 3 -5 0 -13 -6 -17 -7 -4 -9 -3 -6 3 8
13 -18 36 -44 38 -10 1 -17 -1 -14 -3 3 -3 -3 -11 -13 -18 -13 -9 -20 -9 -30
-1 -18 15 -42 18 -42 5 0 -6 7 -7 16 -4 8 3 12 2 9 -4 -7 -11 -33 -9 -52 3 -7
5 -13 5 -13 1 0 -3 -6 -1 -14 5 -12 10 -14 8 -10 -11 2 -13 2 -18 -2 -11 -3 7
-13 9 -22 6 -15 -6 -16 -5 -2 13 14 17 14 18 -1 6 -10 -7 -27 -15 -39 -17 -13
-2 -31 -12 -40 -20 -14 -12 -20 -13 -26 -4 -4 7 -3 10 4 5 12 -7 10 20 -3 31
-4 4 -5 3 -2 -3 9 -16 -13 -31 -41 -28 -17 1 -22 -3 -17 -14 4 -12 0 -11 -21
3 -15 10 -23 12 -19 4 6 -9 3 -11 -8 -6 -9 3 -19 2 -22 -3 -3 -5 -11 -8 -18
-6 -7 1 -9 1 -4 -1 4 -3 7 -12 6 -21 0 -11 -2 -12 -6 -4 -2 6 -9 12 -15 12 -6
0 -7 -7 -4 -16 3 -9 2 -12 -5 -9 -6 4 -8 13 -5 21 3 7 0 16 -6 20 -7 4 -8 3
-4 -4 4 -7 2 -12 -4 -12 -6 0 -9 -4 -5 -9 3 -5 0 -13 -6 -17 -8 -4 -9 -3 -5 4
4 7 2 12 -4 12 -6 0 -8 5 -4 11 4 8 0 8 -15 0 -25 -14 -28 -23 -3 -15 13 5 14
4 3 -4 -7 -5 -17 -15 -21 -22 -5 -8 -9 -7 -13 5 -4 9 -3 13 3 10 6 -4 7 1 3
11 -4 11 -8 13 -11 6 -2 -7 -9 -9 -14 -6 -6 4 -8 2 -5 -3 4 -6 0 -16 -8 -23
-12 -10 -16 -9 -21 4 -5 12 -10 14 -19 6 -6 -5 -16 -6 -20 -2 -5 4 -5 2 -1 -5
4 -7 13 -10 21 -6 8 3 15 -1 15 -8 0 -7 -3 -9 -7 -6 -3 4 -13 1 -21 -6 -10 -8
-13 -8 -9 -1 4 7 0 14 -8 17 -10 4 -12 1 -8 -11 6 -15 5 -15 -10 -3 -19 15
-24 2 -6 -16 8 -8 8 -13 0 -18 -6 -3 -10 -1 -9 5 2 7 -7 14 -20 16 -17 3 -21
0 -16 -8 5 -8 0 -7 -11 2 -10 8 -16 10 -12 3 4 -6 3 -14 -2 -17 -5 -4 -13 -1
-17 5 -4 8 -3 9 4 5 8 -4 10 -2 6 8 -5 12 -12 9 -34 -14 -16 -16 -30 -24 -32
-18 -2 6 -13 8 -26 4 -12 -4 -20 -11 -17 -16 3 -5 0 -12 -6 -16 -8 -4 -9 -3
-5 4 5 8 -1 11 -18 10 -24 -2 -31 -10 -27 -31 1 -5 -3 -6 -8 -3 -5 4 -11 1
-13 -6 -5 -13 -68 -21 -68 -9 0 4 -7 8 -15 8 -11 0 -12 -4 -3 -14 6 -7 8 -16
4 -20 -3 -3 -6 -2 -6 4 0 5 -7 10 -15 10 -8 0 -15 -5 -15 -10 0 -5 -9 -7 -21
-4 -17 5 -18 3 -7 -10 12 -14 11 -15 -9 -5 -30 16 -41 15 -17 -2 10 -8 16 -18
11 -22 -4 -4 -7 -2 -7 4 0 7 -7 12 -15 12 -8 0 -15 -6 -15 -12 0 -9 -4 -8 -11
2 -9 12 -10 10 -6 -8 5 -19 3 -21 -9 -11 -7 6 -11 16 -7 23 4 6 -1 5 -10 -3
-18 -14 -23 -26 -8 -17 5 3 11 0 14 -8 5 -11 0 -13 -25 -6 -23 7 -27 6 -19 -3
7 -9 7 -17 -1 -27 -8 -12 -9 -11 -4 4 5 14 2 17 -10 12 -8 -3 -18 -6 -20 -6
-3 0 -2 -4 1 -10 3 -6 -1 -7 -9 -4 -9 3 -13 11 -9 17 3 6 1 7 -6 3 -9 -6 -9
-11 -1 -21 8 -9 6 -14 -5 -19 -9 -3 -14 -2 -11 3 3 5 0 11 -8 14 -9 4 -13 -2
-12 -16 0 -12 -5 -22 -12 -22 -7 0 -16 -6 -21 -13 -7 -11 -9 -10 -14 3 -4 9
-3 13 2 10 5 -3 12 -1 16 5 4 6 11 7 17 4 7 -4 8 -2 4 5 -4 6 -13 8 -19 4 -7
-4 -16 -8 -22 -8 -5 -1 -9 -7 -7 -14 2 -8 -3 -11 -12 -8 -9 4 -21 -2 -29 -13
-8 -11 -26 -21 -40 -22 -14 -1 -24 -4 -22 -7 7 -7 -36 -61 -45 -56 -5 3 -10 2
-13 -2 -2 -5 -2 -1 0 7 2 8 1 11 -3 7 -4 -4 -14 -1 -23 5 -13 10 -14 10 -3 -2
16 -19 15 -30 -3 -30 -8 0 -15 -5 -15 -11 0 -6 7 -8 16 -5 9 3 12 2 9 -5 -4
-6 -13 -8 -20 -5 -8 3 -16 0 -19 -7 -3 -7 -3 -1 -1 13 4 19 1 17 -12 -10 -15
-29 -23 -34 -51 -34 -23 1 -30 -2 -23 -10 6 -8 6 -17 -1 -26 -8 -12 -9 -12 -4
2 4 14 0 17 -17 14 -12 -1 -24 -11 -25 -22 -2 -10 -9 -23 -14 -29 -7 -7 -8 -2
-3 13 l7 24 -21 -21 c-22 -22 -28 -37 -12 -26 5 3 13 1 16 -5 4 -6 3 -9 -2 -8
-18 5 -53 -14 -47 -25 3 -7 -1 -4 -9 6 -14 17 -15 16 -20 -4 -4 -14 -11 -20
-21 -16 -9 4 -15 1 -13 -6 1 -7 -6 -11 -15 -11 -9 1 -14 -4 -12 -11 3 -7 0
-16 -7 -21 -7 -4 -10 -3 -5 4 3 6 2 14 -4 17 -6 4 -9 1 -8 -6 2 -7 -2 -13 -8
-14 -20 0 -84 -60 -87 -82 -2 -12 -7 -26 -12 -30 -4 -5 -5 -3 -1 4 4 8 -1 11
-14 10 -14 -1 -18 -6 -15 -18 5 -16 -22 -36 -33 -24 -3 3 0 5 6 5 7 0 12 5 12
11 0 8 -4 8 -14 -1 -8 -6 -12 -19 -9 -28 6 -15 5 -16 -12 -2 -17 14 -18 14 -7
-6 13 -25 -1 -43 -29 -39 -11 2 -15 -4 -13 -21 2 -20 -1 -22 -16 -14 -15 8
-18 6 -15 -8 4 -28 -14 -43 -37 -31 -12 6 -18 7 -14 1 7 -12 -18 -35 -27 -25
-4 3 -7 1 -7 -5 0 -17 10 -15 32 5 17 15 18 15 13 0 -8 -18 -40 -32 -55 -22
-5 3 -7 0 -4 -9 3 -8 14 -13 25 -11 11 2 17 0 14 -5 -6 -9 -24 -8 -42 3 -17
10 -17 -5 0 -22 10 -11 8 -11 -13 -1 -24 13 -24 12 -10 -5 14 -17 14 -18 -10
-5 l-25 13 20 -23 20 -23 -24 13 c-19 10 -22 10 -16 -1 6 -9 3 -11 -8 -6 -9 3
-16 3 -16 -1 4 -22 -3 -33 -16 -29 -8 4 -17 1 -21 -5 -4 -6 -3 -8 4 -4 6 3 13
2 17 -4 3 -5 -1 -10 -9 -10 -8 0 -18 -5 -22 -12 -5 -7 -3 -8 7 -3 12 8 12 6 0
-8 -11 -13 -11 -17 -1 -17 8 0 10 -3 6 -7 -4 -5 -14 0 -21 10 -8 12 -15 14
-20 8 -3 -6 -2 -11 3 -11 5 0 9 -7 9 -15 0 -18 -9 -19 -26 -2 -11 10 -12 9 -6
-2 4 -8 2 -17 -6 -22 -8 -4 -15 -13 -15 -19 -1 -5 -2 -15 -3 -21 -1 -8 -5 -8
-15 0 -11 9 -12 6 -8 -15 4 -24 2 -26 -19 -20 -13 3 -18 3 -11 0 6 -3 12 -10
12 -15 0 -6 -4 -7 -10 -4 -6 4 -7 -1 -3 -12 6 -16 5 -16 -11 -4 -15 12 -17 12
-14 0 2 -8 8 -18 13 -22 6 -5 1 -7 -10 -4 -24 5 -32 -27 -13 -53 10 -12 10
-13 -2 -3 -10 9 -18 9 -34 0 -12 -6 -24 -11 -28 -12 -3 0 -10 -4 -15 -9 -5 -5
-2 -6 6 -1 21 12 3 -37 -23 -58 -16 -15 -17 -18 -3 -13 27 9 20 -3 -9 -14 -19
-8 -25 -16 -21 -30 3 -12 1 -17 -5 -14 -5 3 -12 -3 -15 -14 -3 -12 -11 -18
-18 -16 -7 3 -16 0 -21 -7 -4 -8 -3 -10 4 -5 17 10 15 -7 -3 -30 -15 -18 -15
-18 -8 0 4 13 3 17 -5 12 -7 -4 -12 -14 -12 -22 0 -13 -12 -18 -33 -15 -4 1
-2 -8 5 -18 7 -11 16 -17 22 -14 5 3 6 1 2 -6 -4 -6 -12 -8 -18 -5 -8 5 -9 1
-4 -11 5 -14 4 -16 -7 -6 -11 9 -17 8 -26 -2 -13 -16 -5 -28 15 -20 8 3 14 1
14 -4 0 -5 -7 -10 -15 -11 -8 -1 -21 -3 -29 -4 -17 -2 -14 -26 5 -39 10 -8 7
-9 -11 -4 -24 6 -24 5 -6 -9 15 -12 16 -16 5 -16 -8 0 -21 6 -28 13 -10 10
-11 8 -5 -6 4 -11 -3 -32 -21 -58 -15 -23 -22 -38 -17 -35 6 4 10 -2 9 -13 -1
-16 -4 -18 -16 -8 -12 10 -13 9 -3 -9 9 -16 8 -26 -4 -42 -8 -12 -12 -26 -9
-32 3 -6 -1 -7 -9 -4 -14 5 -13 10 4 34 15 21 17 31 9 36 -7 4 -9 3 -5 -4 3
-6 -2 -15 -11 -21 -10 -6 -14 -11 -9 -11 5 0 3 -7 -4 -15 -7 -8 -9 -15 -5 -15
4 0 2 -7 -5 -15 -7 -8 -17 -12 -24 -8 -6 3 -2 -3 8 -15 11 -12 16 -22 11 -22
-4 0 -1 -8 6 -17 13 -16 12 -17 -3 -4 -10 7 -15 18 -11 25 3 6 2 7 -3 3 -12
-12 -12 -30 1 -39 6 -5 3 -8 -7 -8 -9 0 -20 -5 -24 -12 -4 -7 -3 -8 4 -4 7 4
12 3 12 -2 0 -17 -13 -22 -28 -9 -13 11 -14 9 -1 -10 10 -16 16 -19 22 -10 6
8 7 8 4 -3 -2 -8 -13 -15 -24 -14 -11 0 -20 -5 -20 -11 0 -7 11 -11 25 -9 13
1 21 -1 17 -4 -4 -4 -12 -7 -18 -7 -7 0 -11 -8 -11 -18 1 -10 -5 -17 -15 -17
-9 0 -12 -3 -6 -8 13 -9 13 -27 1 -39 -5 -4 -6 -3 -2 4 3 6 2 14 -3 17 -5 4
-8 -5 -6 -20 2 -19 -1 -24 -13 -19 -13 5 -13 3 -1 -12 13 -15 12 -16 -6 -9
-16 6 -18 5 -7 -6 10 -10 8 -15 -10 -26 -21 -12 -21 -12 -2 -7 14 3 21 1 21
-9 0 -8 -6 -12 -14 -9 -9 4 -11 0 -6 -13 5 -13 3 -15 -7 -9 -9 5 -11 4 -6 -3
17 -28 15 -54 -4 -59 -11 -3 -17 -9 -15 -14 3 -4 13 -5 23 -2 13 4 13 2 -3
-10 -15 -11 -22 -12 -27 -4 -6 9 -8 9 -8 0 0 -6 7 -18 15 -27 20 -19 19 -27
-1 -19 -14 5 -15 3 -5 -15 8 -15 8 -23 -1 -28 -7 -5 -8 -3 -3 6 6 9 4 11 -4 5
-8 -4 -11 -20 -9 -37 3 -16 0 -32 -5 -35 -6 -3 -7 -1 -3 5 3 6 2 13 -2 16 -5
3 -9 -7 -8 -22 1 -19 -3 -26 -14 -24 -12 3 -12 0 2 -14 16 -16 16 -18 0 -31
-9 -8 -12 -12 -5 -9 7 4 11 -1 10 -14 -1 -11 -5 -20 -9 -20 -4 0 -8 -4 -8 -9
0 -5 10 -7 23 -5 12 2 15 1 7 -2 -8 -4 -21 -12 -29 -18 -11 -8 -13 -8 -8 1 4
6 4 14 -1 17 -10 6 -10 -50 1 -60 4 -4 7 -12 7 -18 0 -6 -4 -5 -9 2 -7 11 -9
11 -14 -2 -4 -10 -1 -16 7 -16 15 0 16 -24 2 -37 -4 -4 -6 -2 -4 6 2 7 -4 16
-12 18 -10 3 -11 2 -4 -4 6 -4 10 -16 9 -25 -2 -12 2 -15 13 -10 10 3 4 -6
-13 -21 -16 -15 -25 -27 -20 -26 6 1 17 1 25 0 13 -1 13 -3 0 -10 -8 -6 -18
-7 -24 -4 -5 3 -6 1 -2 -6 4 -6 13 -8 19 -4 7 4 6 0 -2 -10 -7 -9 -10 -17 -6
-17 4 0 3 -6 -3 -13 -7 -8 -7 -18 -2 -27 8 -13 10 -13 10 -1 0 8 2 12 5 9 8
-8 -6 -39 -15 -33 -5 3 -12 0 -16 -6 -4 -7 -3 -9 3 -6 6 4 14 0 17 -9 9 -23 8
-24 -12 -18 -15 5 -15 5 0 -5 17 -11 14 -56 -3 -45 -5 3 -9 1 -9 -5 0 -5 6
-11 13 -14 9 -3 9 -9 -1 -27 -8 -12 -10 -20 -5 -17 5 3 15 -3 22 -15 7 -11 8
-17 3 -14 -6 3 -12 3 -15 -1 -2 -5 -3 -3 -1 3 1 6 -4 11 -12 11 -14 0 -12 -6
20 -51 11 -16 15 -27 10 -23 -6 3 -16 -3 -23 -15 -7 -11 -8 -17 -2 -13 6 3 11
2 11 -4 0 -5 -5 -13 -10 -16 -7 -4 -6 -14 2 -28 15 -29 19 -65 7 -72 -5 -3 -6
0 -3 8 3 8 1 18 -5 22 -7 4 -8 0 -4 -11 5 -13 3 -15 -8 -9 -11 6 -12 5 -2 -5
10 -11 10 -17 0 -29 -11 -14 -10 -14 6 -2 17 14 18 13 15 -5 -1 -10 -7 -22
-13 -26 -6 -5 -5 -8 3 -8 6 0 12 -7 12 -16 0 -9 -5 -12 -12 -8 -9 5 -9 2 1 -9
11 -14 11 -17 0 -17 -9 0 -10 -3 -4 -8 13 -8 13 -22 1 -41 -7 -10 -6 -12 4 -6
10 6 12 4 6 -10 -5 -14 -4 -16 7 -6 11 9 17 8 26 -3 9 -10 7 -16 -6 -27 -16
-13 -17 -12 -5 3 9 11 10 18 2 23 -5 3 -11 3 -11 -2 -8 -58 -8 -64 6 -53 10 8
15 8 21 -1 4 -8 3 -9 -4 -5 -16 10 -15 -16 1 -34 6 -8 1 -6 -12 5 -26 21 -22
6 8 -29 16 -19 15 -19 -14 -1 -20 11 -24 12 -11 2 10 -9 16 -22 13 -29 -2 -7
0 -21 5 -32 7 -13 7 -16 -1 -12 -6 4 -11 2 -11 -3 0 -11 11 -14 27 -8 5 1 7 6
5 10 -1 5 2 6 7 2 17 -10 0 -35 -23 -35 -21 -1 -21 -1 2 -13 12 -7 20 -16 16
-20 -4 -3 -1 -15 7 -24 13 -16 12 -17 -3 -5 -12 10 -18 10 -24 1 -4 -7 -3 -9
3 -6 6 4 13 0 16 -7 3 -8 1 -17 -6 -20 -9 -3 -8 -5 1 -5 8 -1 10 -6 6 -13 -5
-9 -3 -9 9 1 9 7 14 18 10 24 -4 6 -1 7 6 2 9 -5 10 -10 2 -18 -13 -13 -15
-30 -2 -23 13 8 7 -22 -6 -35 -9 -9 -8 -16 3 -26 12 -12 12 -18 2 -31 -11 -14
-10 -15 7 -8 11 4 16 4 12 0 -4 -4 0 -18 9 -32 8 -13 14 -26 11 -28 -2 -2 -10
7 -17 21 -7 14 -18 25 -23 25 -5 0 -4 -7 4 -16 10 -13 10 -17 -2 -26 -11 -8
-10 -9 4 -4 15 5 17 2 11 -16 -6 -20 -5 -21 10 -9 9 8 19 11 23 7 3 -3 1 -6
-6 -6 -7 0 -11 -7 -8 -15 4 -8 1 -17 -5 -21 -7 -5 -8 -2 -3 6 6 9 4 11 -5 5
-10 -6 -7 -14 14 -30 26 -20 26 -23 11 -39 -14 -13 -14 -16 -2 -16 9 0 18 6
21 13 2 6 3 1 1 -13 -2 -14 -4 -29 -4 -33 -1 -5 -6 -5 -12 -1 -8 4 -7 9 2 15
8 5 9 9 3 9 -19 0 -23 -12 -11 -31 8 -12 15 -15 23 -8 8 7 15 6 20 -2 4 -8 3
-9 -4 -5 -16 10 -15 -6 1 -24 10 -12 9 -12 -5 -2 -12 10 -18 10 -24 1 -5 -8
-3 -9 6 -4 10 6 12 4 7 -8 -4 -12 -2 -14 11 -10 15 6 16 5 2 -12 -14 -17 -13
-17 9 -10 21 6 22 5 10 -8 -8 -8 -17 -13 -22 -10 -4 2 -7 0 -7 -5 0 -6 7 -13
16 -16 8 -3 12 -2 9 3 -3 5 -1 12 4 15 11 7 9 -13 -2 -32 -9 -14 16 -45 28
-34 5 4 5 2 1 -5 -3 -6 -2 -14 3 -17 5 -4 8 -14 6 -24 -1 -9 2 -22 6 -28 12
-15 0 -46 -14 -37 -6 4 -7 1 -3 -6 5 -7 10 -10 13 -7 12 12 42 -15 36 -31 -5
-12 -3 -14 7 -8 8 5 11 4 6 -3 -4 -6 -14 -8 -23 -5 -15 6 -16 5 -3 -9 8 -9 18
-14 22 -11 5 2 8 -1 8 -7 0 -6 5 -8 12 -4 7 5 8 3 4 -5 -5 -7 -14 -10 -20 -8
-7 3 -13 -1 -13 -7 0 -8 11 -12 31 -10 l31 3 -27 -15 c-16 -8 -28 -17 -28 -20
0 -3 8 -1 17 4 22 13 61 -32 45 -51 -9 -11 -10 -36 -2 -57 1 -3 2 -9 1 -13 -1
-5 3 -6 9 -2 6 3 8 11 5 16 -4 5 -1 9 5 9 7 0 10 -7 6 -15 -3 -8 1 -21 9 -29
18 -18 19 -26 3 -22 -7 1 -10 1 -5 -1 4 -3 5 -9 1 -14 -7 -12 19 -7 27 5 4 4
5 -10 4 -33 -2 -34 0 -39 12 -29 11 9 13 8 11 -3 -2 -8 3 -13 10 -11 8 1 11
-1 8 -6 -3 -5 1 -20 9 -35 8 -15 12 -27 9 -27 -3 0 0 -9 6 -21 6 -11 8 -26 3
-33 -4 -6 0 -3 11 9 l19 20 -7 -22 c-7 -21 0 -27 25 -25 3 1 6 -4 6 -11 0 -7
4 -21 8 -32 5 -14 4 -16 -3 -7 -7 11 -10 11 -15 -3 -4 -9 -3 -14 1 -11 11 7
45 -21 38 -33 -4 -5 -1 -13 5 -17 8 -5 9 -3 4 7 -5 8 -1 7 11 -3 13 -12 19
-28 18 -48 -1 -16 2 -28 6 -25 5 3 11 -4 15 -15 3 -11 11 -20 17 -20 7 0 6 5
-1 14 -8 9 -8 16 -2 20 17 11 21 -7 10 -54 -4 -15 0 -15 31 -8 8 2 14 -5 15
-17 0 -11 6 -19 12 -18 7 2 12 -3 10 -10 -1 -6 3 -11 10 -10 13 3 12 -22 -2
-34 -4 -4 -5 -2 -1 4 5 9 2 11 -9 7 -23 -9 -7 -19 38 -23 4 -1 7 -8 7 -16 0
-14 13 -20 34 -16 5 1 4 -4 -2 -12 -7 -8 -8 -18 -4 -22 4 -5 1 -5 -6 -1 -7 4
-10 12 -7 17 3 5 -1 6 -10 3 -9 -4 -15 -3 -14 2 3 20 -2 34 -12 34 -8 0 -9 -4
0 -13 6 -8 8 -16 5 -20 -3 -3 4 -10 15 -17 12 -6 19 -16 15 -21 -4 -8 -1 -8
13 -1 13 7 24 7 34 0 11 -8 11 -9 -3 -4 -12 3 -18 0 -18 -10 0 -11 6 -13 20
-9 20 6 25 -2 21 -34 -2 -7 4 -11 11 -8 7 2 12 10 11 16 -4 16 2 14 18 -6 8
-10 9 -14 2 -10 -15 9 -25 -7 -17 -28 4 -9 15 -15 28 -13 13 2 21 -3 21 -12 1
-8 7 -14 13 -12 10 2 10 -3 2 -18 -8 -14 -8 -20 0 -20 6 0 8 -4 5 -10 -3 -5
-1 -10 5 -10 6 0 9 8 6 18 -4 12 -1 19 8 19 8 0 12 -6 9 -13 -2 -7 1 -23 8
-36 7 -13 12 -27 11 -31 -1 -5 2 -6 8 -2 7 4 7 13 -1 28 -7 16 -4 14 11 -6 12
-15 27 -24 32 -21 6 4 8 2 5 -3 -7 -12 26 -46 36 -37 3 3 4 -1 3 -10 -1 -8 -6
-19 -11 -23 -4 -4 -5 -2 0 6 6 10 4 12 -4 7 -9 -6 -9 -11 0 -22 6 -7 15 -12
19 -9 11 7 31 -20 22 -29 -4 -4 0 -6 8 -4 8 2 14 -2 15 -9 0 -6 4 -15 9 -20 6
-5 6 -2 1 6 -6 11 -4 13 7 8 9 -3 20 -1 25 4 7 7 9 -2 7 -25 -1 -20 2 -36 7
-36 6 0 7 5 4 10 -9 15 4 12 22 -5 8 -8 19 -12 25 -9 7 4 8 2 4 -5 -4 -6 -12
-9 -17 -6 -5 3 -6 -1 -3 -9 3 -9 11 -13 18 -9 22 14 34 11 29 -8 -5 -19 4 -24
37 -19 11 1 9 -3 -5 -15 -12 -10 -14 -15 -5 -12 20 6 38 -14 34 -37 -2 -14 0
-16 9 -7 17 17 43 15 28 -2 -6 -8 -8 -17 -4 -20 11 -12 23 -8 23 8 0 8 4 15 9
15 12 0 9 -33 -4 -43 -5 -5 1 -5 14 -2 14 4 21 3 18 -2 -4 -6 0 -19 9 -29 14
-18 15 -18 4 4 -12 25 -5 29 16 7 9 -8 12 -15 7 -15 -4 0 4 -8 20 -18 15 -10
24 -23 20 -27 -5 -5 -1 -4 7 2 19 14 30 7 49 -29 l14 -27 19 22 c11 12 16 15
12 7 -10 -18 -13 -49 -5 -47 3 1 16 -4 28 -11 20 -11 22 -10 17 5 -3 10 2 6
10 -9 17 -29 39 -39 86 -40 27 -1 28 -2 12 -15 -16 -13 -11 -22 15 -26 5 0 14
-7 22 -14 7 -8 20 -12 27 -9 13 5 16 0 13 -20 -2 -16 27 -22 41 -9 11 10 20
11 30 4 12 -8 12 -9 -4 -7 -10 2 -21 -3 -23 -10 -3 -8 1 -10 13 -5 11 4 15 3
10 -5 -3 -6 -1 -14 5 -18 8 -4 9 -3 5 4 -4 7 -3 12 1 12 5 0 14 -9 21 -20 10
-16 16 -18 31 -10 14 7 22 6 31 -5 7 -8 16 -13 20 -10 5 3 6 -4 3 -15 -5 -18
-3 -19 21 -10 38 14 45 12 16 -6 -25 -15 -25 -15 -2 -8 21 5 23 3 18 -18 -3
-12 -3 -17 0 -10 3 6 12 12 20 12 10 0 12 -5 8 -12 -5 -9 -2 -8 9 1 10 8 20
11 24 7 3 -3 1 -6 -6 -6 -9 0 -9 -3 1 -14 11 -11 15 -11 24 2 10 13 11 12 9
-11 -2 -14 0 -26 3 -26 20 3 32 -2 27 -11 -10 -16 1 -12 15 6 8 8 9 14 4 13
-22 -4 -34 2 -34 18 0 15 2 14 15 -3 8 -10 15 -15 15 -10 0 5 11 -1 25 -14 13
-12 22 -26 20 -30 -2 -3 11 -6 30 -5 25 0 35 -4 38 -17 4 -13 11 -16 23 -11
13 5 15 3 9 -7 -5 -8 -4 -11 3 -6 5 3 12 3 15 -1 2 -5 2 -2 1 5 -4 16 4 15 21
-2 8 -7 11 -17 7 -22 -4 -5 0 -4 8 2 21 14 43 12 47 -6 4 -13 3 -13 -6 0 -9
13 -11 13 -11 -2 0 -22 9 -22 34 -3 11 8 24 15 30 15 5 0 1 -6 -10 -14 -16
-12 -17 -17 -6 -28 11 -11 12 -10 7 4 -7 17 17 20 32 3 4 -4 1 -5 -7 -1 -8 4
-7 1 4 -8 13 -10 25 -12 42 -6 15 6 26 5 30 -2 5 -7 2 -8 -7 -4 -8 4 -5 0 5
-8 13 -11 23 -12 31 -6 13 10 60 -22 49 -33 -10 -9 19 -2 43 11 31 17 41 15
15 -4 -12 -8 -22 -21 -22 -27 0 -7 4 -6 10 3 9 13 11 13 21 0 9 -12 10 -12 5
4 -5 14 -2 17 10 12 8 -3 20 -6 25 -6 6 0 7 -6 3 -12 -5 -8 0 -7 11 2 10 8 16
10 13 5 -11 -18 25 -35 45 -20 9 6 13 16 9 20 -4 5 -1 5 6 1 10 -6 10 -11 1
-22 -9 -11 -9 -14 0 -14 7 0 10 -4 7 -8 -3 -5 1 -9 9 -9 11 0 12 4 4 14 -14
16 -5 17 22 2 11 -5 17 -14 15 -18 -3 -4 1 -8 9 -8 13 0 13 4 0 24 -15 23 -15
23 5 11 11 -7 20 -17 20 -22 0 -5 10 -1 22 10 12 10 18 14 15 8 -4 -7 0 -17 8
-24 8 -7 12 -17 8 -24 -3 -6 2 -4 13 5 20 18 68 20 71 4 1 -6 -1 -12 -4 -15
-4 -3 -3 0 0 6 3 6 0 11 -7 11 -8 0 -12 -6 -9 -14 7 -19 20 -16 38 10 16 22
16 22 11 -8 -5 -28 -4 -29 9 -11 8 10 12 23 8 29 -3 6 -1 7 6 3 6 -4 9 -11 6
-16 -9 -14 26 -43 38 -31 12 12 31 15 24 3 -3 -4 12 -8 34 -8 23 -1 39 3 39
10 0 7 3 6 8 -2 5 -7 18 -14 31 -17 12 -2 19 0 16 5 -3 4 7 7 22 5 16 -2 34 2
42 9 12 8 13 8 7 -1 -4 -8 -2 -13 4 -13 6 0 8 -5 5 -10 -3 -6 -2 -10 4 -10 5
0 12 6 15 13 5 9 7 9 12 0 3 -7 10 -13 15 -13 6 0 7 6 3 13 -5 7 0 6 11 -3 11
-9 16 -10 11 -2 -4 6 -3 12 3 12 5 0 12 -6 14 -12 4 -10 6 -10 6 0 1 6 5 12
11 12 5 0 7 -8 4 -17 -5 -17 -5 -17 6 0 13 20 36 23 43 5 2 -7 8 -10 12 -6 4
4 2 16 -6 25 -13 16 -12 17 3 5 9 -7 22 -12 30 -11 25 3 38 -1 36 -12 -2 -6 4
-14 12 -16 13 -4 13 -3 0 6 -8 6 -12 11 -7 12 4 1 10 2 15 3 4 1 14 5 22 11
13 7 13 6 2 -7 -10 -13 -10 -18 -1 -24 8 -5 9 -3 4 6 -6 10 -4 12 9 7 10 -4
15 -3 11 3 -3 6 1 10 10 10 9 0 13 -4 10 -10 -3 -5 -1 -10 4 -10 6 0 11 5 11
10 0 6 5 10 11 10 5 0 8 -4 5 -9 -3 -5 8 -7 24 -6 17 1 33 -1 36 -6 3 -5 11
-9 17 -9 8 0 8 3 2 8 -5 4 -17 16 -25 26 -14 18 -14 19 10 5 14 -8 28 -18 32
-24 5 -6 8 -5 8 3 0 19 20 14 21 -5 0 -14 2 -15 6 -3 3 8 11 18 16 22 13 8 60
-1 68 -13 4 -6 9 -4 12 6 4 9 3 13 -2 10 -5 -3 -13 0 -17 7 -4 7 -3 10 1 5 5
-4 17 0 27 10 11 9 18 11 18 5 0 -7 -5 -12 -11 -12 -5 0 -7 -5 -3 -11 4 -7 18
0 37 18 18 15 25 19 16 8 -28 -36 -35 -52 -12 -33 11 10 25 18 32 18 7 0 9 5
5 12 -4 7 -3 8 4 4 6 -4 10 -12 8 -19 -1 -7 -1 -9 1 -4 3 4 10 4 16 0 6 -4 8
-1 5 8 -4 10 3 15 24 16 21 0 26 -2 17 -8 -9 -6 -2 -8 23 -6 20 1 34 6 31 10
-3 5 -12 6 -22 2 -10 -4 -12 -3 -6 3 6 6 32 7 61 3 41 -6 51 -4 47 6 -3 7 -10
10 -16 6 -6 -3 -7 -1 -3 6 6 9 11 9 22 0 8 -6 14 -8 14 -4 0 4 7 2 15 -5 9 -7
18 -10 22 -6 3 3 1 6 -5 6 -7 0 -12 4 -12 8 0 4 9 8 19 8 11 0 18 -3 16 -6 -2
-3 5 -6 15 -6 12 0 16 5 12 16 -5 13 -3 13 11 1 18 -15 23 -3 7 17 -7 9 -7 9
2 2 8 -6 16 -4 25 8 10 13 13 14 11 2 -2 -8 -7 -18 -11 -21 -5 -3 -1 -9 8 -12
9 -4 13 -3 10 3 -9 14 8 12 24 -2 11 -10 12 -10 7 -1 -4 8 2 15 19 19 14 3 22
11 19 18 -3 6 1 3 9 -7 13 -16 15 -16 21 -2 4 11 2 14 -7 9 -9 -5 -9 -4 -1 5
6 6 24 14 40 17 21 3 25 2 14 -5 -8 -5 -18 -7 -22 -5 -4 3 -8 0 -8 -5 0 -14 3
-14 34 0 14 7 23 15 21 20 -3 4 6 6 20 4 14 -1 25 2 25 8 0 6 9 2 19 -7 13
-12 21 -14 26 -6 3 6 1 9 -6 8 -7 -2 -14 7 -15 19 -1 12 3 20 8 17 4 -3 5 -10
2 -16 -5 -7 -1 -9 9 -5 9 3 18 1 21 -6 3 -9 5 -9 5 1 1 6 8 12 17 12 8 0 12 5
9 11 -5 7 3 9 23 6 21 -4 29 -1 26 7 -3 7 6 12 21 14 14 1 24 -2 21 -6 -3 -5
1 -9 9 -9 10 0 11 5 4 18 -6 12 -5 20 3 25 6 4 8 3 5 -3 -4 -6 -1 -16 7 -22
11 -9 12 -6 8 16 -4 27 -4 28 13 8 9 -11 13 -14 9 -6 -5 10 -1 11 15 6 12 -4
21 -2 21 4 0 6 7 11 15 11 14 0 20 13 16 34 -1 5 4 4 12 -2 8 -7 18 -8 22 -4
5 4 6 2 2 -3 -3 -6 3 -11 13 -11 15 0 16 3 8 14 -9 10 -6 12 18 8 27 -5 28 -4
10 9 -17 13 -14 17 10 14 4 0 10 4 14 10 3 7 14 9 23 5 9 -3 14 -11 10 -17 -3
-6 -1 -7 6 -3 9 6 9 11 -1 24 -12 14 -10 14 10 3 19 -10 25 -8 24 9 0 3 7 12
16 20 14 13 15 12 9 -3 -3 -9 -1 -19 5 -23 6 -4 8 -3 5 2 -8 14 8 37 27 40 9
1 14 -2 10 -7 -3 -5 -10 -7 -15 -4 -5 4 -9 1 -9 -4 0 -14 17 -14 25 -1 5 8 12
7 23 -2 15 -12 16 -11 3 5 -13 16 -12 20 4 35 13 12 15 12 8 2 -10 -13 -8 -16
6 -16 10 0 17 6 14 12 -6 16 14 27 23 13 5 -8 3 -9 -7 -4 -11 6 -12 5 -2 -5
17 -19 27 -6 14 17 -8 15 -7 20 4 20 8 0 12 -4 9 -8 -2 -4 0 -10 6 -14 9 -6
15 16 11 39 -1 5 9 2 23 -7 18 -12 27 -14 32 -5 4 6 3 8 -3 5 -11 -7 -28 22
-18 31 3 3 5 0 5 -6 0 -7 9 -12 20 -12 18 0 19 3 9 22 -9 18 -9 21 1 11 7 -6
19 -9 28 -6 11 5 13 3 7 -7 -5 -9 -4 -11 4 -6 9 6 9 11 1 21 -8 10 -8 15 1 21
7 4 9 3 6 -3 -4 -6 0 -14 9 -17 12 -5 15 -2 10 10 -6 15 -4 15 11 3 9 -8 14
-9 10 -3 -3 6 1 20 9 30 9 10 13 13 9 6 -4 -7 0 -12 9 -12 9 0 13 6 10 14 -3
9 1 13 13 13 13 -2 18 5 17 22 -1 21 1 22 11 7 18 -24 28 -20 14 7 -11 19 -10
20 3 10 8 -7 18 -10 21 -6 4 3 7 0 7 -7 0 -7 2 -11 5 -8 10 9 -7 38 -18 31 -6
-3 -7 -1 -3 6 6 9 11 9 24 -1 14 -11 15 -10 9 7 l-7 20 16 -20 c15 -20 16 -20
12 4 -2 16 2 25 14 26 11 2 15 -2 11 -11 -3 -8 -1 -14 5 -14 11 0 10 38 -2 61
-4 8 -1 6 8 -5 18 -22 51 -14 42 10 -5 14 -4 14 7 5 11 -9 17 -8 27 3 6 9 9
19 6 24 -3 6 2 9 12 8 9 0 16 4 15 11 -2 8 4 10 15 6 15 -6 14 -3 -3 17 l-20
23 30 -19 c17 -11 26 -14 21 -5 -7 10 -3 12 15 6 l24 -8 -25 22 -25 21 25 -9
c30 -10 72 13 63 35 -4 12 17 20 31 12 11 -8 46 39 47 61 0 14 3 20 6 14 2 -7
9 -13 14 -13 4 0 5 8 2 17 -5 12 -2 15 9 10 17 -6 33 18 23 34 -4 5 1 6 9 3 9
-3 16 -11 16 -17 0 -6 3 -7 6 -4 4 4 1 13 -5 21 -8 10 -9 16 -1 21 6 3 7 11 4
17 -4 7 -2 8 5 4 9 -6 9 -11 0 -22 -8 -10 -8 -14 0 -14 6 0 11 5 11 11 0 5 5
7 11 3 8 -4 8 -1 1 13 -7 13 -7 24 0 34 8 11 9 11 4 -3 -3 -10 -1 -20 4 -23 6
-4 11 -1 11 4 1 6 2 16 3 23 0 6 8 13 16 15 13 4 13 3 0 -7 -13 -10 -12 -11 3
-6 10 3 21 6 25 6 3 0 -3 6 -13 14 -17 12 -17 13 11 12 26 -1 29 2 30 31 0 18
4 36 9 40 4 5 5 2 1 -5 -5 -8 0 -11 16 -9 23 4 27 12 12 25 -4 4 -4 1 1 -7 5
-10 4 -12 -4 -7 -6 4 -9 12 -5 17 3 5 10 7 15 4 13 -9 11 19 -3 35 -7 8 -3 7
8 -3 19 -16 22 -16 27 -2 4 8 12 14 18 13 11 -3 16 12 21 54 1 9 5 16 8 16 18
-3 38 16 35 33 -3 12 0 17 7 13 7 -5 9 -2 5 9 -4 11 -2 14 8 10 8 -3 12 -10 8
-17 -3 -6 0 -5 8 2 8 7 14 18 14 25 1 7 7 11 14 9 7 -1 10 2 6 8 -5 8 -11 8
-21 -1 -7 -6 -11 -16 -7 -22 4 -6 1 -7 -6 -3 -18 11 18 49 38 41 8 -3 12 -3 8
1 -4 4 -2 13 3 19 6 7 11 24 12 38 1 14 7 25 13 24 5 -1 9 3 8 10 -2 6 6 15
17 18 11 4 18 10 15 15 -3 5 -1 11 5 15 6 4 8 10 5 15 -3 4 6 7 20 5 14 -1 23
0 20 3 -3 3 5 16 17 29 12 13 18 23 13 23 -5 0 2 12 16 27 13 14 18 23 12 19
-7 -4 -13 -3 -13 2 0 16 27 21 41 9 11 -10 11 -9 0 6 -11 14 -11 17 -1 17 8 0
10 3 7 6 -4 4 -12 2 -20 -4 -10 -8 -13 -7 -13 8 0 12 6 17 17 15 10 -2 24 4
31 13 8 10 9 13 1 9 -6 -4 -14 -3 -18 3 -3 5 -1 10 5 10 6 0 8 5 5 10 -5 9 7
14 27 11 4 0 5 11 2 24 -2 14 0 25 6 25 6 0 8 -4 5 -10 -3 -5 -1 -10 6 -10 6
0 9 8 6 20 -3 13 0 20 9 20 8 0 14 5 14 11 0 5 -5 7 -12 3 -7 -5 -8 -3 -4 5 5
7 14 10 22 7 9 -3 11 0 7 11 -4 10 -2 14 5 9 6 -3 14 -2 17 4 4 6 3 9 -2 8 -4
-2 -8 1 -8 7 0 5 3 9 6 8 3 -1 5 8 4 20 -3 29 5 48 16 41 5 -3 9 0 9 6 0 6 5
8 11 4 7 -4 10 -1 7 7 -2 7 5 22 16 32 l21 18 -23 -11 c-30 -15 -41 -6 -13 10
12 6 19 15 16 19 -2 5 3 15 13 22 15 13 16 12 4 -3 -9 -11 -10 -18 -2 -23 6
-4 9 -1 8 7 -2 7 4 12 12 10 12 -3 12 0 -1 15 -17 18 -15 48 2 38 5 -4 17 -1
26 5 15 10 16 11 1 6 -9 -2 -19 2 -22 10 -3 8 -2 12 3 9 5 -3 12 4 16 15 3 11
11 20 16 20 5 0 9 5 9 11 0 5 -4 8 -9 4 -5 -3 -13 -1 -16 5 -4 6 -1 9 7 8 7
-2 12 3 10 10 -1 7 5 12 15 10 10 -2 17 2 16 10 -2 6 2 12 7 12 6 0 10 5 10
11 0 8 -5 8 -15 -1 -8 -7 -12 -17 -8 -24 3 -6 2 -7 -2 -3 -12 10 -15 38 -4 31
5 -3 9 5 9 18 0 19 2 20 11 8 8 -12 10 -12 8 5 -2 33 1 41 11 25 8 -13 10 -12
10 3 0 9 -5 17 -10 17 -6 0 -5 8 2 19 9 15 9 23 -3 37 -12 16 -12 17 1 9 8 -5
22 -10 32 -10 13 -1 15 2 7 16 -14 26 -7 69 13 80 10 5 18 16 18 24 0 8 5 15
11 15 6 0 8 8 4 19 -3 11 -2 22 4 25 5 3 7 16 3 28 -4 16 -2 19 9 13 8 -5 11
-5 7 0 -4 4 -2 15 5 24 11 14 10 14 -5 2 -12 -9 -18 -10 -18 -2 0 6 7 14 15
18 14 5 14 8 -2 26 -10 11 -12 17 -5 13 6 -4 12 -2 12 3 0 6 5 11 11 11 8 0 7
-6 -2 -17 -12 -16 -12 -17 2 -6 17 14 19 49 5 72 -7 10 -6 12 4 6 10 -6 12 -4
7 8 -5 13 -1 17 16 17 18 0 19 2 7 10 -8 5 -15 15 -15 22 -1 7 -7 12 -14 10
-7 -1 -10 2 -6 8 3 6 11 8 16 5 8 -6 13 8 10 27 0 4 7 4 16 1 10 -4 14 -2 10
4 -4 6 -4 13 0 16 5 2 2 2 -4 1 -7 -2 -13 1 -13 6 0 10 15 14 35 10 6 -1 7 2
3 6 -4 4 -2 14 5 22 7 9 7 13 1 9 -6 -3 -20 0 -30 8 -18 14 -18 15 0 9 14 -5
17 -3 14 12 -2 10 -11 18 -19 16 -8 -2 -10 0 -6 5 5 4 13 9 18 9 5 1 12 2 16
3 3 0 -2 11 -13 23 l-19 21 27 -17 c26 -17 26 -17 21 5 -5 17 -3 20 7 14 9 -5
11 -4 6 4 -6 9 -11 9 -21 1 -10 -8 -15 -8 -21 1 -5 8 -3 9 6 4 10 -6 12 -3 8
13 -5 19 -4 20 15 11 18 -10 20 -9 10 2 -17 17 -17 32 0 23 6 -4 9 -3 4 1 -4
5 1 18 10 29 12 14 13 17 3 9 -10 -8 -21 -9 -30 -3 -12 8 -11 10 5 10 16 0 17
2 5 9 -8 6 -18 7 -24 4 -5 -3 -6 -1 -2 5 4 6 13 9 20 6 16 -6 29 33 14 43 -6
3 -8 1 -4 -5 3 -6 2 -13 -3 -16 -5 -4 -8 2 -6 11 1 10 9 17 17 16 10 -2 14 7
13 38 -1 22 2 42 7 45 4 3 5 11 2 19 -4 8 -10 13 -14 10 -13 -8 -20 21 -8 33
6 6 18 8 27 5 9 -4 13 -3 9 1 -3 4 -14 9 -25 10 -10 2 -17 7 -15 12 2 5 9 8
17 6 7 -1 16 2 20 8 4 6 3 10 -2 9 -19 -3 -30 2 -30 16 0 12 3 12 15 2 13 -10
14 -9 4 8 -7 15 -7 26 1 40 9 17 8 18 -5 8 -12 -11 -18 -9 -34 10 l-19 22 21
-18 c20 -16 22 -16 28 -2 3 9 6 26 6 36 0 13 4 18 12 13 6 -4 8 -3 5 4 -4 5
-15 9 -25 7 -9 -2 -19 -4 -22 -4 -3 -1 2 -6 10 -11 9 -6 10 -10 3 -10 -6 0
-14 4 -17 9 -7 10 18 34 26 25 3 -3 6 11 6 30 0 20 -3 36 -7 36 -4 0 -7 9 -8
20 -2 20 -1 20 15 2 9 -10 13 -13 9 -6 -10 15 -19 53 -19 77 1 11 -4 15 -11
11 -7 -4 -9 -4 -5 1 4 4 2 15 -4 24 -10 13 -10 14 2 3 18 -16 27 -15 27 3 0 8
-3 12 -6 10 -4 -2 -11 8 -18 21 -6 13 -7 22 -2 18 13 -7 16 38 5 84 -3 13 0
22 7 22 6 0 2 7 -9 15 -18 12 -20 20 -14 55 4 23 3 40 -2 40 -5 0 -6 5 -3 10
4 6 12 7 18 3 7 -4 7 -1 -1 9 -8 9 -23 19 -35 21 -20 4 -20 4 3 6 l25 2 -24
13 c-20 11 -21 14 -7 19 11 5 15 3 10 -5 -4 -7 -3 -8 5 -4 8 6 9 12 2 20 -6 7
-8 16 -4 20 4 4 -1 4 -12 1 -20 -7 -20 -6 0 11 18 15 18 16 1 10 -13 -4 -17
-2 -13 7 3 7 -1 24 -8 37 -10 18 -10 29 -3 38 6 7 7 16 3 20 -4 4 -10 1 -12
-6 -3 -6 -9 -10 -14 -6 -5 3 -2 12 6 21 10 9 13 22 9 32 -3 9 -7 21 -7 28 0 7
-4 10 -9 7 -4 -3 -4 -14 2 -24 5 -10 10 -22 10 -27 -1 -4 -7 3 -14 16 -7 13
-11 33 -8 44 4 15 2 18 -8 12 -9 -5 -11 -4 -6 4 6 9 11 9 23 -1 15 -12 15 -11
3 9 -8 12 -19 19 -25 16 -5 -3 -4 0 3 8 15 16 16 29 1 29 -5 0 -7 -5 -3 -12 4
-6 3 -8 -4 -5 -14 9 -3 49 12 40 6 -3 3 3 -7 15 -12 12 -16 26 -11 34 6 10 4
10 -9 -1 -16 -13 -16 -14 -1 -26 14 -9 14 -14 4 -20 -8 -5 -11 -4 -7 2 4 6 -1
14 -10 17 -12 5 -14 9 -5 18 13 13 16 58 4 58 -4 0 -13 -4 -20 -10 -9 -7 -9
-7 -2 2 13 15 13 31 0 23 -6 -3 -7 1 -4 10 6 14 7 14 18 0 10 -15 12 -14 12 4
0 11 -5 19 -11 18 -5 -1 -9 6 -7 16 2 9 -2 17 -8 17 -6 0 -9 -4 -6 -8 2 -4 0
-14 -5 -22 -6 -11 -8 -5 -4 18 4 22 2 31 -5 27 -14 -9 -13 8 3 24 10 11 9 13
-3 9 -11 -4 -16 1 -17 14 -2 17 0 18 15 6 15 -12 16 -11 3 4 -7 10 -17 15 -22
12 -5 -3 -9 7 -9 21 0 15 -4 24 -10 20 -14 -9 -12 18 3 34 10 11 10 13 0 7 -7
-4 -13 -2 -13 4 0 6 -4 8 -10 5 -5 -3 -10 1 -10 10 0 10 5 13 12 9 7 -4 8 -3
4 4 -4 6 -14 8 -24 5 -15 -6 -16 -5 -2 12 9 11 10 16 3 11 -7 -4 -13 -3 -13 3
0 5 5 13 10 16 17 11 -11 37 -32 31 -16 -3 -17 -2 -7 10 6 7 16 11 23 7 6 -4
5 1 -3 10 -7 9 -19 17 -25 17 -6 0 -4 -5 4 -11 10 -7 11 -9 2 -7 -8 2 -13 7
-12 12 1 5 -4 13 -12 18 -9 6 -5 7 12 2 25 -6 25 -6 -4 19 -16 14 -26 29 -22
35 3 6 0 13 -6 16 -10 5 -10 7 0 12 6 3 12 10 12 15 0 6 -6 7 -12 2 -20 -12
-50 -14 -43 -3 3 5 14 10 23 11 11 0 12 3 5 6 -7 2 -13 10 -13 16 0 7 -9 18
-20 25 -21 13 -27 42 -9 42 6 0 3 7 -5 16 -9 8 -14 20 -11 24 3 5 -3 7 -13 5
-12 -2 -18 3 -18 16 0 10 5 19 10 19 5 0 6 3 3 6 -4 4 -14 1 -24 -7 -14 -12
-16 -12 -8 0 6 11 4 13 -7 9 -8 -4 -15 -1 -15 7 0 7 6 11 13 8 6 -2 15 1 20 8
4 8 3 10 -4 5 -7 -4 -12 -2 -12 4 0 6 -5 8 -12 4 -7 -5 -9 0 -6 14 5 16 2 20
-14 17 -16 -4 -18 -2 -8 11 10 12 9 19 -6 36 -43 49 -63 66 -68 57 -2 -5 -3
-4 -2 3 2 7 10 12 19 10 8 -1 19 3 23 9 4 7 3 9 -4 6 -5 -4 -18 -4 -27 -1 -13
5 -14 8 -3 15 10 7 9 9 -4 9 -9 0 -18 -3 -21 -7 -2 -5 -3 -3 -1 3 4 17 -16 33
-35 27 -14 -4 -14 -3 -1 6 10 7 19 6 31 -5 8 -7 20 -14 25 -14 4 0 -2 7 -14
16 -12 8 -19 20 -16 26 4 7 0 7 -13 0 -16 -9 -19 -7 -20 11 -2 17 0 19 7 7 6
-9 10 -10 10 -3 0 21 -18 24 -30 6 -8 -13 -10 -13 -7 -2 3 8 -5 25 -18 37 -14
13 -21 31 -20 47 2 14 -2 28 -7 32 -7 3 -8 1 -4 -5 4 -7 2 -12 -3 -12 -10 0
-15 16 -14 47 0 7 -4 11 -11 10 -6 -1 -10 4 -8 12 3 12 0 12 -12 2 -10 -8 -16
-9 -21 -1 -3 6 -10 8 -14 5 -5 -2 -7 8 -6 24 2 22 -1 28 -11 24 -10 -4 -12 0
-8 11 4 9 3 16 -2 15 -22 -4 -33 2 -39 22 -6 17 -9 18 -23 7 -15 -12 -16 -11
-3 5 10 13 11 20 2 30 -6 8 -7 17 -3 22 4 4 -2 5 -13 1 -15 -4 -24 2 -37 25
-11 18 -22 27 -29 23 -8 -5 -9 -3 -4 6 6 10 14 7 32 -15 13 -15 27 -24 30 -21
4 4 -3 13 -15 22 -12 8 -20 20 -16 25 3 5 2 9 -3 8 -4 -1 -16 -1 -27 0 -15 1
-16 4 -6 16 11 13 10 14 -5 9 -13 -5 -16 -4 -11 5 5 7 2 10 -6 9 -8 -2 -12 6
-11 22 2 21 1 23 -8 8 -5 -10 -15 -18 -22 -18 -8 0 -8 3 -2 8 6 4 11 13 13 21
3 12 0 12 -12 2 -10 -8 -16 -9 -21 -1 -3 6 -11 7 -17 4 -7 -4 -8 -2 -4 5 6 9
11 9 22 0 8 -7 14 -7 14 -1 0 12 -28 24 -40 17 -4 -2 -7 5 -6 18 1 17 -4 21
-21 19 -13 -2 -23 2 -23 8 0 6 4 9 9 5 5 -3 13 0 17 6 4 8 3 9 -4 5 -7 -4 -12
-2 -12 5 0 10 -3 10 -12 1 -7 -7 -17 -12 -22 -12 -6 0 -4 5 4 10 10 6 11 10 3
10 -7 0 -13 5 -13 11 0 5 4 7 10 4 6 -4 7 1 3 11 -4 12 -8 14 -11 6 -3 -10 -7
-10 -20 0 -15 12 -16 11 -3 -5 8 -9 11 -20 7 -24 -3 -3 -6 -1 -6 6 0 7 -5 9
-12 5 -7 -4 -10 -4 -6 0 9 10 -11 66 -24 66 -7 0 -6 -5 1 -13 8 -10 7 -14 -4
-14 -8 0 -13 3 -10 5 3 3 -1 12 -8 20 -8 11 -8 14 0 9 6 -4 14 -3 17 2 7 10
-13 9 -31 -2 -7 -5 -9 -1 -6 13 6 22 -21 29 -31 8 -3 -7 -3 -3 0 10 4 16 1 22
-10 22 -9 0 -16 5 -16 11 0 5 4 8 8 5 5 -3 9 1 9 8 0 7 -6 13 -13 13 -7 0 -11
-4 -8 -9 8 -13 -11 -9 -32 7 -19 15 -19 15 1 9 17 -4 16 -3 -3 8 -12 8 -19 18
-15 23 4 4 2 5 -5 1 -7 -4 -10 -13 -6 -19 3 -7 -1 -4 -9 6 -11 14 -16 15 -20
5 -3 -7 -4 2 -3 20 3 32 3 32 -17 15 -19 -17 -20 -17 -9 3 9 16 8 21 -3 21 -8
0 -12 -3 -10 -7 2 -4 -2 -7 -9 -7 -15 0 -17 27 -2 27 13 1 -24 24 -39 25 -5 0
-13 -4 -17 -10 -5 -6 -8 -6 -8 2 0 6 5 15 10 18 6 3 10 11 10 16 0 6 -8 3 -17
-6 -15 -16 -18 -16 -28 -1 -8 10 -16 12 -23 6 -9 -7 -9 -7 -2 2 15 19 12 32
-5 18 -11 -9 -15 -9 -15 -1 0 7 -4 10 -8 7 -5 -3 -9 1 -9 9 0 10 4 12 12 5 9
-7 14 -6 18 4 4 9 1 18 -5 22 -6 4 -8 3 -5 -3 4 -6 -4 -10 -18 -10 -14 0 -22
4 -19 9 4 6 -3 5 -14 -1 -15 -8 -23 -8 -28 1 -4 6 -3 8 3 5 6 -4 16 0 23 8 11
13 10 14 -5 9 -10 -4 -16 -3 -13 2 4 5 -9 9 -28 9 -19 0 -34 5 -34 10 0 6 4
10 9 10 5 0 12 3 16 7 4 3 -4 5 -18 4 -16 -2 -24 1 -21 9 3 6 -3 18 -12 26
-12 9 -15 10 -10 2 4 -8 1 -13 -8 -13 -10 0 -13 6 -9 18 3 9 3 14 -2 10 -4 -4
-14 -3 -22 3 -7 6 -22 9 -33 6 -11 -3 -21 -1 -21 4 -1 5 -2 14 -3 19 0 6 -4 9
-7 8 -4 -2 -16 6 -28 16 -12 11 -21 14 -21 9 0 -6 7 -14 16 -17 9 -4 14 -9 11
-13 -4 -3 -1 -13 6 -22 11 -14 10 -14 -5 -2 -10 7 -15 17 -12 22 5 8 -9 13
-28 10 -4 0 -5 5 -2 13 7 18 -12 30 -22 15 -5 -8 -3 -9 6 -4 9 5 11 4 6 -4
-11 -17 -26 -3 -19 17 6 15 5 16 -12 2 -11 -9 -16 -10 -11 -2 4 6 3 12 -3 12
-5 0 -12 8 -14 18 -4 16 -5 16 -6 0 0 -10 -6 -18 -12 -18 -6 0 -9 7 -6 15 4 8
1 17 -5 21 -7 4 -8 3 -4 -4 4 -7 1 -12 -9 -12 -9 0 -13 5 -10 10 3 6 -1 10 -9
10 -9 0 -16 -6 -16 -12 0 -7 -9 -2 -20 12 -12 15 -20 19 -20 11 0 -8 -3 -11
-6 -8 -4 4 -1 15 7 24 7 10 9 15 5 11 -5 -4 -15 -3 -23 4 -10 8 -12 8 -8 -4 4
-9 0 -15 -9 -15 -8 0 -13 4 -11 8 6 9 -24 21 -35 14 -4 -3 -6 5 -3 17 4 20 3
21 -7 5 -12 -18 -30 -15 -30 6 0 7 4 6 11 -3 9 -13 10 -13 6 0 -2 8 -10 14
-16 13 -6 -2 -11 2 -11 7 0 6 -5 10 -12 10 -9 0 -9 -3 0 -12 7 -7 12 -16 12
-22 0 -5 -8 1 -19 12 -10 12 -25 22 -34 22 -8 0 -17 5 -19 11 -2 5 -10 11 -18
12 -8 2 -21 6 -28 11 -7 4 -19 2 -28 -5 -8 -6 -17 -9 -21 -5 -3 3 0 6 8 6 10
1 9 4 -4 11 -9 6 -14 16 -11 22 4 7 3 9 -1 4 -5 -4 -18 -1 -30 7 -18 12 -22
12 -22 1 0 -8 5 -11 10 -8 6 3 7 1 3 -5 -4 -6 -13 -9 -21 -6 -8 4 -12 11 -8
17 4 6 0 8 -10 4 -10 -3 -17 -2 -17 3 0 6 -5 10 -11 10 -5 0 -7 -4 -4 -10 3
-6 -1 -7 -10 -4 -9 4 -14 12 -12 19 7 16 -32 12 -43 -5 -6 -9 -11 -7 -21 11
-11 22 -11 23 4 10 11 -9 17 -10 17 -2 0 11 -13 15 -39 12 -8 -2 -10 2 -5 10
4 8 3 10 -4 5 -9 -5 -9 -13 -1 -29 l12 -22 -20 20 c-11 11 -18 24 -15 29 3 5
0 6 -6 2 -6 -3 -13 -2 -17 3 -4 7 -15 7 -31 1 -35 -14 -41 -12 -18 5 18 13 18
14 -5 8 -16 -4 -22 -3 -17 5 4 7 -1 10 -14 7 -11 -2 -22 1 -26 6 -4 6 -13 4
-25 -7 -17 -16 -18 -15 -14 4 3 16 -1 19 -18 14 -12 -3 -26 -8 -32 -12 -20
-13 -68 6 -58 24 5 8 3 8 -8 0 -15 -12 -51 -15 -44 -3 3 3 -2 12 -9 18 -12 10
-14 8 -10 -11 5 -23 5 -23 -9 2 l-15 24 -5 -24 -4 -25 -2 24 c-1 16 -6 21 -16
18 -8 -4 -17 -3 -19 2 -3 4 -21 7 -40 6 -21 -1 -36 3 -36 9 0 6 -4 5 -9 -3 -7
-10 -11 -9 -23 7 -14 20 -14 20 -26 1 -7 -10 -17 -19 -23 -19 -8 0 -7 5 1 15
11 13 10 14 -5 9 -11 -5 -16 -4 -12 3 9 14 -40 10 -54 -4 -9 -9 -8 -11 2 -10
8 2 19 6 26 10 6 4 14 3 18 -3 7 -12 8 -11 -29 -15 -18 -1 -38 5 -50 16 -11
11 -24 15 -30 10 -10 -7 -23 -7 -61 2 -5 1 -17 7 -25 12 -13 8 -13 7 -1 -9z
m-160 -19 c8 -10 7 -14 -2 -14 -8 0 -14 6 -14 14 0 7 1 13 2 13 2 0 8 -6 14
-13z m200 0 c8 -10 7 -14 -2 -14 -8 0 -14 6 -14 14 0 7 1 13 2 13 2 0 8 -6 14
-13z m64 0 c6 -15 -29 -21 -38 -6 -3 5 1 6 9 3 9 -3 16 -1 16 5 0 15 7 14 13
-2z m160 -28 c-8 -8 -13 -7 -18 2 -6 8 -4 10 5 4 10 -6 12 -4 6 11 -6 15 -5
17 5 7 9 -10 10 -16 2 -24z m-653 11 c0 -5 -5 -10 -11 -10 -5 0 -7 5 -4 10 3
6 8 10 11 10 2 0 4 -4 4 -10z m705 -10 c-3 -5 -12 -10 -18 -10 -7 0 -6 4 3 10
19 12 23 12 15 0z m30 0 c3 -5 1 -10 -4 -10 -6 0 -11 5 -11 10 0 6 2 10 4 10
3 0 8 -4 11 -10z m-947 -14 c-7 -8 -17 -12 -22 -9 -4 3 -2 9 5 14 22 13 31 11
17 -5z m-108 -27 c0 -5 -4 -9 -8 -9 -5 0 -9 7 -9 15 0 8 4 12 9 9 4 -3 8 -9 8
-15z m-95 1 c-3 -5 -1 -10 6 -10 7 0 10 -3 6 -6 -9 -9 -28 6 -22 17 4 5 8 9
11 9 3 0 2 -4 -1 -10z m46 -7 c13 -16 12 -17 -3 -4 -10 7 -18 15 -18 17 0 8 8
3 21 -13z m1369 -3 c0 -5 -2 -10 -4 -10 -3 0 -8 5 -11 10 -3 6 -1 10 4 10 6 0
11 -4 11 -10z m73 -5 c4 0 7 -4 8 -8 2 -18 -9 -16 -27 5 -11 13 -13 18 -4 12
8 -5 18 -9 23 -9z m80 -32 c-5 -12 -3 -14 7 -8 9 6 11 4 5 -4 -5 -9 -11 -9
-17 -3 -6 6 -7 15 -4 21 11 17 16 13 9 -6z m-1933 -67 c0 -3 -4 -8 -10 -11 -5
-3 -10 -1 -10 4 0 6 5 11 10 11 6 0 10 -2 10 -4z m2205 -6 c3 -5 1 -10 -5 -10
-6 0 -8 -6 -4 -12 4 -7 3 -9 -1 -5 -12 10 -15 37 -5 37 5 0 12 -4 15 -10z
m-2264 -17 c13 -16 12 -17 -3 -4 -10 7 -18 15 -18 17 0 8 8 3 21 -13z m2319
-23 c-6 -11 -13 -20 -16 -20 -2 0 0 9 6 20 6 11 13 20 16 20 2 0 0 -9 -6 -20z
m-2380 6 c0 -3 -4 -8 -10 -11 -5 -3 -10 -1 -10 4 0 6 5 11 10 11 6 0 10 -2 10
-4z m2421 -28 c-10 -11 -11 -9 -5 6 6 15 4 17 -6 11 -9 -6 -11 -4 -5 4 5 9 10
10 18 2 8 -8 7 -14 -2 -23z m-2912 -201 c0 -9 -2 -8 -6 1 -2 6 -10 9 -15 6 -7
-4 -8 -2 -4 5 9 13 26 5 25 -12z m-69 -37 c-12 -22 -21 -26 -17 -7 2 10 17 26
25 27 1 0 -2 -9 -8 -20z m3517 0 c3 -10 2 -11 -4 -4 -4 6 -15 14 -23 17 -11 5
-9 6 4 4 11 -1 21 -9 23 -17z m53 -14 c0 -2 -8 -10 -17 -17 -16 -13 -17 -12
-4 4 13 16 21 21 21 13z m-3833 -148 c-3 -8 -6 -5 -6 6 -1 11 2 17 5 13 3 -3
4 -12 1 -19z m4098 -38 c3 -5 1 -10 -4 -10 -6 0 -11 5 -11 10 0 6 2 10 4 10 3
0 8 -4 11 -10z m-4295 -117 c0 -3 -7 -3 -14 0 -9 4 -17 -2 -21 -14 -4 -11 -9
-18 -12 -15 -4 3 -12 1 -20 -6 -7 -6 -16 -8 -19 -5 -3 3 5 11 18 18 12 6 26
18 31 25 7 12 37 9 37 -3z m-405 -411 c-3 -3 -11 0 -18 7 -9 10 -8 11 6 5 10
-3 15 -9 12 -12z m5300 -42 c3 -6 -1 -7 -9 -4 -18 7 -21 14 -7 14 6 0 13 -4
16 -10z m-5420 -78 c-3 -3 -11 0 -18 7 -9 10 -8 11 6 5 10 -3 15 -9 12 -12z
m-75 -92 c0 -5 -5 -10 -11 -10 -5 0 -7 5 -4 10 3 6 8 10 11 10 2 0 4 -4 4 -10z
m5637 4 c-3 -3 -12 -4 -19 -1 -8 3 -5 6 6 6 11 1 17 -2 13 -5z m-5686 -61 c13
-16 12 -17 -3 -4 -17 13 -22 21 -14 21 2 0 10 -8 17 -17z m-124 -158 c0 -8 -4
-12 -9 -9 -5 3 -6 10 -3 15 9 13 12 11 12 -6z m6035 -102 c20 -18 24 -33 7
-33 -5 0 -8 4 -4 9 3 5 -5 17 -17 25 -12 9 -18 16 -14 16 5 0 18 -7 28 -17z
m-6118 -21 c3 -5 -1 -9 -9 -9 -8 0 -15 4 -15 9 0 4 4 8 9 8 6 0 12 -4 15 -8z
m6223 -158 c-8 -8 -48 -13 -43 -6 2 4 14 8 26 9 12 1 20 0 17 -3z m-6333 -35
c-3 -5 -10 -7 -15 -3 -5 3 -7 10 -3 15 3 5 10 7 15 3 5 -3 7 -10 3 -15z m6346
17 c0 -3 -4 -8 -10 -11 -5 -3 -10 -1 -10 4 0 6 5 11 10 11 6 0 10 -2 10 -4z
m-6374 -44 c0 -10 -6 -19 -13 -19 -8 0 -9 6 -2 19 5 10 11 18 12 18 2 0 3 -8
3 -18z m-82 -157 c-4 -8 -11 -15 -16 -15 -6 0 -5 6 2 15 7 8 14 15 16 15 2 0
1 -7 -2 -15z m6598 -80 c0 -5 -5 -10 -11 -11 -8 -2 -7 -1 0 3 8 4 7 8 -2 15
-11 8 -11 9 -1 6 8 -2 14 -8 14 -13z m123 -365 c-3 -5 -12 -10 -18 -10 -7 0
-6 4 3 10 19 12 23 12 15 0z m-6951 -338 c3 -5 -1 -9 -9 -9 -8 0 -12 4 -9 9 3
4 7 8 9 8 2 0 6 -4 9 -8z m7031 -2 c3 -6 -1 -7 -9 -4 -18 7 -21 14 -7 14 6 0
13 -4 16 -10z m30 -140 c3 -5 1 -10 -4 -10 -6 0 -11 5 -11 10 0 6 2 10 4 10 3
0 8 -4 11 -10z m5 -56 c0 -8 -19 -13 -24 -6 -3 5 1 9 9 9 8 0 15 -2 15 -3z
m-7090 -18 c0 -2 -7 -7 -16 -10 -8 -3 -12 -2 -9 4 6 10 25 14 25 6z m7115 -46
c-3 -5 -11 -10 -16 -10 -6 0 -7 5 -4 10 3 6 11 10 16 10 6 0 7 -4 4 -10z m15
-62 c0 -4 -5 -8 -12 -8 -6 0 -8 3 -5 6 3 4 2 16 -4 28 -10 20 -10 20 5 2 9
-11 16 -23 16 -28z m-7120 -234 c0 -8 -19 -13 -24 -6 -3 5 1 9 9 9 8 0 15 -2
15 -3z m-29 -21 c13 -16 12 -17 -3 -4 -10 7 -18 15 -18 17 0 8 8 3 21 -13z m6
-132 c0 -11 -5 -18 -9 -15 -4 3 -5 11 -1 19 7 21 12 19 10 -4z m-1 -71 c-3
-42 -12 -46 -12 -5 0 19 3 35 7 35 4 0 6 -13 5 -30z m7152 -107 c-6 -7 -16
-13 -22 -12 -6 0 -5 3 3 6 11 5 11 7 0 14 -10 6 -7 8 8 6 17 -1 19 -4 11 -14z
m-3 -53 c-3 -5 -12 -10 -18 -10 -7 0 -6 4 3 10 19 12 23 12 15 0z m-7116 -73
c0 -9 -2 -8 -6 1 -2 6 -10 9 -15 6 -7 -4 -8 -2 -4 5 9 13 26 5 25 -12z m46
-226 c3 -5 2 -12 -3 -15 -5 -3 -9 1 -9 9 0 17 3 19 12 6z m7025 -25 c0 -2 -7
-7 -16 -10 -8 -3 -12 -2 -9 4 6 10 25 14 25 6z m-109 -360 c-6 -8 -11 -18 -9
-22 4 -15 -22 -54 -35 -54 -9 0 -8 3 1 9 7 4 14 14 16 22 5 33 18 59 28 59 7
0 6 -5 -1 -14z m-6816 -64 c-3 -3 -11 0 -18 7 -9 10 -8 11 6 5 10 -3 15 -9 12
-12z m6620 -380 c-3 -3 -11 0 -18 7 -9 10 -8 11 6 5 10 -3 15 -9 12 -12z
m-115 -252 c0 -5 -2 -10 -4 -10 -3 0 -8 5 -11 10 -3 6 -1 10 4 10 6 0 11 -4
11 -10z m-147 -262 c-10 -11 -16 -22 -15 -25 2 -3 1 -7 -2 -10 -3 -4 -6 1 -6
10 0 8 7 22 15 30 8 8 11 18 7 22 -4 5 -1 5 6 1 11 -6 10 -12 -5 -28z m-143
-194 c0 -8 -19 -13 -24 -6 -3 5 1 9 9 9 8 0 15 -2 15 -3z m-143 -193 c0 -11
-5 -18 -9 -15 -4 3 -5 11 -1 19 7 21 12 19 10 -4z m-30 -6 c0 -8 -4 -12 -9 -9
-5 3 -6 10 -3 15 9 13 12 11 12 -6z m-5149 -145 c7 -11 11 -20 9 -20 -2 0 -12
9 -22 20 -10 11 -14 20 -9 20 5 0 15 -9 22 -20z m5067 2 c-3 -3 -11 0 -18 7
-9 10 -8 11 6 5 10 -3 15 -9 12 -12z m-158 -117 c0 -8 -4 -12 -9 -9 -5 3 -6
10 -3 15 9 13 12 11 12 -6z m-53 -64 c3 -4 -1 -16 -8 -26 -10 -14 -15 -15 -21
-5 -5 8 -4 11 2 7 6 -4 13 0 16 7 3 8 1 17 -6 20 -9 3 -9 5 0 5 6 1 14 -3 17
-8z m-92 -80 c2 7 9 10 16 8 8 -3 5 -8 -7 -16 -16 -10 -22 -9 -33 5 -12 15
-11 16 4 4 12 -10 17 -10 20 -1z m-4398 -52 c-3 -5 -10 -7 -15 -3 -5 3 -7 10
-3 15 3 5 10 7 15 3 5 -3 7 -10 3 -15z m4265 -43 c9 -11 9 -16 -1 -22 -7 -4
-10 -4 -6 1 4 4 3 14 -3 22 -6 7 -9 13 -6 13 2 0 10 -6 16 -14z m-4191 -21
c-3 -3 -9 2 -12 12 -6 14 -5 15 5 6 7 -7 10 -15 7 -18z m49 -30 c0 -8 -4 -12
-9 -9 -4 3 -8 9 -8 15 0 5 4 9 8 9 5 0 9 -7 9 -15z m63 -29 c0 -3 -4 -8 -10
-11 -5 -3 -10 -1 -10 4 0 6 5 11 10 11 6 0 10 -2 10 -4z m80 -66 c0 -5 -2 -10
-4 -10 -3 0 -8 5 -11 10 -3 6 -1 10 4 10 6 0 11 -4 11 -10z m177 -105 c0 -8
-4 -12 -9 -9 -4 3 -8 9 -8 15 0 5 4 9 8 9 5 0 9 -7 9 -15z m338 -157 c5 4 5 1
1 -6 -6 -10 -11 -10 -22 -1 -8 6 -14 14 -14 16 0 3 6 0 13 -6 8 -6 18 -7 22
-3z m2725 -18 c0 -5 -2 -10 -4 -10 -3 0 -8 5 -11 10 -3 6 -1 10 4 10 6 0 11
-4 11 -10z m-2603 -25 c0 -8 -4 -12 -9 -9 -5 3 -6 10 -3 15 9 13 12 11 12 -6z
m2534 -28 c-10 -9 -11 -8 -5 6 3 10 9 15 12 12 3 -3 0 -11 -7 -18z m-2404 -49
c-3 -8 -6 -5 -6 6 -1 11 2 17 5 13 3 -3 4 -12 1 -19z m2208 -10 c5 4 5 1 1 -6
-6 -10 -11 -10 -22 -1 -8 6 -14 14 -14 16 0 3 6 0 13 -6 8 -6 18 -7 22 -3z
m-2055 -40 c0 -6 -6 -5 -15 2 -8 7 -15 14 -15 16 0 2 7 1 15 -2 8 -4 15 -11
15 -16z m1844 -6 c3 -5 -1 -9 -9 -9 -8 0 -12 4 -9 9 3 4 7 8 9 8 2 0 6 -4 9
-8z m-1707 -27 c0 -8 -4 -12 -9 -9 -4 3 -8 9 -8 15 0 5 4 9 8 9 5 0 9 -7 9
-15z m1666 -10 c-10 -7 -20 -12 -21 -10 -7 7 23 33 31 28 5 -3 0 -11 -10 -18z
m-1476 -37 c-3 -8 -6 -5 -6 6 -1 11 2 17 5 13 3 -3 4 -12 1 -19z m173 -26 c0
-13 -12 -22 -22 -16 -10 6 -1 24 13 24 5 0 9 -4 9 -8z m45 -2 c-8 -13 8 -13
21 0 7 7 11 6 11 -3 0 -11 -26 -16 -45 -8 -5 2 8 21 14 21 3 0 2 -4 -1 -10z
m710 0 c3 -5 1 -10 -4 -10 -6 0 -11 5 -11 10 0 6 2 10 4 10 3 0 8 -4 11 -10z
m-631 -16 c3 -8 2 -12 -4 -9 -6 3 -10 10 -10 16 0 14 7 11 14 -7z"/>
<path d="M3471 7224 c0 -11 3 -14 6 -6 3 7 2 16 -1 19 -3 4 -6 -2 -5 -13z"/>
<path d="M3712 7223 c6 -7 14 -10 19 -7 15 9 10 20 -10 20 -15 0 -17 -3 -9
-13z"/>
<path d="M3325 7219 c-4 -6 -5 -12 -2 -15 2 -3 7 2 10 11 7 17 1 20 -8 4z"/>
<path d="M3410 7219 c0 -5 5 -7 10 -4 6 3 10 8 10 11 0 2 -4 4 -10 4 -5 0 -10
-5 -10 -11z"/>
<path d="M4294 7169 c3 -15 36 -21 36 -7 0 6 -6 8 -14 5 -8 -3 -17 -2 -20 4
-2 5 -3 4 -2 -2z"/>
<path d="M2630 7090 c-9 -6 -10 -10 -3 -10 6 0 15 5 18 10 8 12 4 12 -15 0z"/>
<path d="M2412 7009 c2 -7 -6 -15 -17 -17 -31 -6 -38 -18 -11 -18 26 0 53 31
36 41 -6 4 -9 1 -8 -6z"/>
<path d="M5047 6939 c7 -7 15 -10 18 -7 3 3 -2 9 -12 12 -14 6 -15 5 -6 -5z"/>
<path d="M5130 6901 c0 -6 4 -12 8 -15 5 -3 9 1 9 9 0 8 -4 15 -9 15 -4 0 -8
-4 -8 -9z"/>
<path d="M1837 6715 c3 -8 9 -12 14 -9 12 7 11 11 -5 17 -10 4 -13 1 -9 -8z"/>
<path d="M1724 6652 c3 -5 1 -12 -6 -14 -8 -3 -9 -6 -1 -11 6 -4 13 0 17 8 3
8 0 17 -6 21 -6 4 -8 3 -4 -4z"/>
<path d="M5676 6575 c4 -8 8 -15 10 -15 2 0 4 7 4 15 0 8 -4 15 -10 15 -5 0
-7 -7 -4 -15z"/>
<path d="M1555 6530 c-3 -5 -1 -10 4 -10 6 0 11 5 11 10 0 6 -2 10 -4 10 -3 0
-8 -4 -11 -10z"/>
<path d="M1325 6369 c-4 -6 -5 -12 -2 -15 2 -3 7 2 10 11 7 17 1 20 -8 4z"/>
<path d="M1230 6249 c0 -5 5 -7 10 -4 6 3 10 8 10 11 0 2 -4 4 -10 4 -5 0 -10
-5 -10 -11z"/>
<path d="M1150 6169 c0 -5 5 -7 10 -4 6 3 10 8 10 11 0 2 -4 4 -10 4 -5 0 -10
-5 -10 -11z"/>
<path d="M6380 5931 c0 -10 19 -25 25 -20 1 2 -3 10 -11 17 -8 7 -14 8 -14 3z"/>
<path d="M6446 5852 c-3 -5 1 -15 8 -21 11 -10 14 -9 12 3 -3 21 -13 29 -20
18z"/>
<path d="M6557 5700 c18 -20 25 -22 35 -12 11 11 9 12 -6 6 -15 -6 -17 -4 -11
7 4 8 5 11 0 7 -4 -4 -15 -3 -24 4 -9 7 -6 1 6 -12z"/>
<path d="M621 5563 c-7 -8 -11 -16 -8 -19 2 -2 10 2 17 11 17 20 9 27 -9 8z"/>
<path d="M6687 5519 c7 -7 15 -10 18 -7 3 3 -2 9 -12 12 -14 6 -15 5 -6 -5z"/>
<path d="M6840 5251 c0 -6 4 -13 10 -16 6 -3 7 1 4 9 -7 18 -14 21 -14 7z"/>
<path d="M198 4653 c7 -3 16 -2 19 1 4 3 -2 6 -13 5 -11 0 -14 -3 -6 -6z"/>
<path d="M7255 3910 c3 -5 8 -10 11 -10 2 0 4 5 4 10 0 6 -5 10 -11 10 -5 0
-7 -4 -4 -10z"/>
<path d="M7273 3835 c0 -8 4 -12 9 -9 5 3 6 10 3 15 -9 13 -12 11 -12 -6z"/>
<path d="M65 3790 c-3 -6 1 -7 9 -4 18 7 21 14 7 14 -6 0 -13 -4 -16 -10z"/>
<path d="M135 3079 c-10 -15 3 -25 16 -12 7 7 7 13 1 17 -6 3 -14 1 -17 -5z"/>
<path d="M7216 3077 c3 -10 9 -15 12 -12 3 3 0 11 -7 18 -10 9 -11 8 -5 -6z"/>
<path d="M7183 2938 c-11 -19 -13 -39 -1 -32 5 3 7 9 4 12 -3 3 -1 11 5 19 6
7 9 13 6 13 -3 0 -9 -6 -14 -12z"/>
<path d="M180 2830 c0 -5 7 -7 15 -4 8 4 15 8 15 10 0 2 -7 4 -15 4 -8 0 -15
-4 -15 -10z"/>
<path d="M7065 2541 c-3 -5 0 -13 6 -17 7 -4 9 -3 5 4 -3 5 0 13 6 15 9 4 10
6 1 6 -6 1 -14 -3 -18 -8z"/>
<path d="M270 2531 c0 -5 8 -15 18 -22 15 -12 16 -12 5 2 -7 9 -10 19 -6 22 3
4 1 7 -5 7 -7 0 -12 -4 -12 -9z"/>
<path d="M306 2438 c3 -5 10 -6 15 -3 13 9 11 12 -6 12 -8 0 -12 -4 -9 -9z"/>
<path d="M372 2300 c7 -11 16 -20 21 -20 4 0 3 9 -3 20 -6 11 -15 20 -20 20
-6 0 -5 -9 2 -20z"/>
<path d="M478 2063 c6 -2 12 -13 12 -24 0 -10 5 -19 11 -19 5 0 7 -5 3 -12 -4
-6 -3 -8 4 -4 13 8 -14 66 -31 65 -8 0 -8 -2 1 -6z"/>
<path d="M6833 2025 c0 -8 4 -12 9 -9 4 3 8 9 8 15 0 5 -4 9 -8 9 -5 0 -9 -7
-9 -15z"/>
<path d="M513 1975 c0 -8 4 -12 9 -9 5 3 6 10 3 15 -9 13 -12 11 -12 -6z"/>
<path d="M540 1930 c0 -5 7 -10 15 -10 9 0 12 -6 9 -15 -4 -8 -4 -15 -1 -15
16 0 13 31 -3 40 -14 7 -20 7 -20 0z"/>
<path d="M630 1810 c0 -5 5 -10 11 -10 5 0 7 5 4 10 -3 6 -8 10 -11 10 -2 0
-4 -4 -4 -10z"/>
<path d="M719 1673 c-13 -16 -12 -17 4 -4 16 13 21 21 13 21 -2 0 -10 -8 -17
-17z"/>
<path d="M730 1650 c0 -5 5 -10 11 -10 5 0 8 -4 5 -8 -3 -5 1 -9 9 -9 13 0 12
4 -2 19 -18 21 -23 22 -23 8z"/>
<path d="M6580 1615 c-7 -9 -8 -15 -2 -15 5 0 12 7 16 15 3 8 4 15 2 15 -2 0
-9 -7 -16 -15z"/>
<path d="M6540 1558 c-17 -27 -22 -50 -9 -42 5 3 7 9 5 13 -3 4 4 14 15 21 19
15 25 30 11 30 -4 0 -14 -10 -22 -22z"/>
<path d="M866 1472 c-3 -5 1 -9 9 -9 8 0 12 4 9 9 -3 4 -7 8 -9 8 -2 0 -6 -4
-9 -8z"/>
<path d="M945 1390 c-8 -13 3 -30 18 -30 8 0 7 3 -2 9 -7 5 -10 14 -7 20 4 6
5 11 2 11 -3 0 -8 -4 -11 -10z"/>
<path d="M6385 1351 c-3 -5 0 -13 6 -17 7 -4 9 -3 5 4 -3 5 0 13 6 15 9 4 10
6 1 6 -6 1 -14 -3 -18 -8z"/>
<path d="M1050 1272 c0 -7 5 -12 11 -12 5 0 7 -5 3 -12 -4 -6 -3 -8 4 -4 6 3
15 -2 21 -11 5 -10 12 -15 15 -12 3 3 -8 18 -24 34 -17 16 -30 23 -30 17z"/>
<path d="M1291 1034 c0 -11 3 -14 6 -6 3 7 2 16 -1 19 -3 4 -6 -2 -5 -13z"/>
<path d="M1566 817 c3 -10 9 -15 12 -12 3 3 0 11 -7 18 -10 9 -11 8 -5 -6z"/>
<path d="M1755 680 c3 -5 8 -10 11 -10 2 0 4 5 4 10 0 6 -5 10 -11 10 -5 0 -7
-4 -4 -10z"/>
<path d="M2004 538 c-5 -7 -3 -8 6 -3 10 6 12 4 7 -8 -4 -11 -2 -14 9 -10 11
4 12 9 3 19 -14 17 -16 17 -25 2z"/>
<path d="M2253 405 c0 -8 4 -15 9 -15 4 0 8 4 8 9 0 6 -4 12 -8 15 -5 3 -9 -1
-9 -9z"/>
<path d="M5137 403 c-4 -3 -7 -11 -7 -17 0 -6 5 -5 12 2 6 6 9 14 7 17 -3 3
-9 2 -12 -2z"/>
<path d="M5030 351 c0 -6 4 -13 10 -16 6 -3 7 1 4 9 -7 18 -14 21 -14 7z"/>
<path d="M2666 247 c3 -10 9 -15 12 -12 3 3 0 11 -7 18 -10 9 -11 8 -5 -6z"/>
<path d="M3010 154 c0 -8 5 -12 10 -9 6 4 8 11 5 16 -9 14 -15 11 -15 -7z"/>
<path d="M3073 135 c0 -8 4 -12 9 -9 4 3 8 9 8 15 0 5 -4 9 -8 9 -5 0 -9 -7
-9 -15z"/>
<path d="M4171 114 c0 -11 3 -14 6 -6 3 7 2 16 -1 19 -3 4 -6 -2 -5 -13z"/>
<path d="M3390 96 c0 -2 7 -7 16 -10 8 -3 12 -2 9 4 -6 10 -25 14 -25 6z"/>
<path d="M3652 91 c-11 -7 -11 -9 0 -14 9 -3 15 1 15 9 0 8 -1 14 -1 14 -1 0
-7 -4 -14 -9z"/>
<path d="M3955 90 c-3 -5 -1 -10 4 -10 6 0 11 5 11 10 0 6 -2 10 -4 10 -3 0
-8 -4 -11 -10z"/>
</g>
</svg>
